Cover:  
http://www.shotpix.com/images/31733502226375364721.jpg


Release Title: Frank Ocean - Pyramids (2012)

Music video by Frank Ocean performing Pyramids (Explicit). (C) 2012 The Island Def Jam Music Group

                         1080p Full HD MP4 Video
                                   +
                          96 Kbps/VBR M4A Audio


Sing Along!
English subtitles included.



General
Format                         : MPEG-4
Format profile                 : Base Media / Version 2
Codec ID                       : mp42
File size                      : 72.1 MiB
Duration                       : 7mn 57s
Overall bit rate mode          : Variable
Overall bit rate               : 1 268 Kbps


Video
ID                             : 1
Format                         : AVC
Format/Info                    : Advanced Video Codec
Bit rate mode                  : Variable
Bit rate                       : 1 136 Kbps
Width                          : 1 920 pixels
Height                         : 764 pixels
Display aspect ratio           : 2.513
Frame rate mode                : Variable
Frame rate                     : 23.976 fps
Stream size                    : 64.6 MiB (90%)
Writing library                : x264 core 125


Audio
ID                             : 2
Format                         : AAC
Format/Info                    : Advanced Audio Codec
Format profile                 : LC
Codec ID                       : 40
Duration                       : 7mn 57s
Bit rate mode                  : Variable
Bit rate                       : 126 Kbps
Channel(s)                     : 2 channels
Channel positions              : Front: L R
Sampling rate                  : 48.0 KHz
Stream size                    : 7.16 MiB (10%)

Subtitle                       : Yes (English)




Screens:

 
http://www.shotpix.com/images/69807741563824852883.jpg 
http://www.shotpix.com/images/05165004545591334371.jpg



Thumbs:
 
http://www.shotpix.com/images/70657237086851825332.jpg


------------------------------------------------------------------------


Notes:

* Best played on VLC Media Player.
* Install shark007 codecs in case of any kind of problem in playback (For non-VLC Media Player users).
* Alternatively, install Core AVC codecs, the fastest decoder that there is coupled with Community Center Codec Pack and play on Windows Media Player Classic.
* Read NFO
* Help in seeding this torrent as much as you can. 



Greets to: srkfan, VYTO, MgB, staff members at ExtraTorrent, TPB,KAT, 1337x, PublicHD, Ahashare,
SilverTorrent, TorrentMafia, P2PDL, and all others


Encoder Notes: Looking For Early Access To Anything You Can Provide DVDScr, R5, DVDRips, BluRay, Direct Audio, Early Music
Releases, Seedboxes, Links, Dedicated Servers anything u can provide, Advance / Promo CDs/DVDs. If You Got anything to
offer contact me at "contact@tinym.eu"


Facebook Fan Page: http:// www . facebook . com / p2pdl

                                               Enjoy!